<svg width="24" height="24" viewBox="0 0 24 24" fill="none" xmlns="http://www.w3.org/2000/svg">
<path fill-rule="evenodd" clip-rule="evenodd" d="M11 3C6.02944 3 2 7.02944 2 12C2 16.9706 6.02944 21 11 21C15.9706 21 20 16.9706 20 12C20 7.02944 15.9706 3 11 3ZM0 12C0 5.92487 4.92487 1 11 1C17.0751 1 22 5.92487 22 12C22 18.0751 17.0751 23 11 23C4.92487 23 0 18.0751 0 12Z" fill="black"/>
<path fill-rule="evenodd" clip-rule="evenodd" d="M7.79686 13.3958C7.46468 12.9576 6.84044 12.8697 6.4 13.2C5.95817 13.5314 5.86863 14.1582 6.2 14.6L7 14C6.2 14.6 6.19975 14.5997 6.2 14.6L6.20101 14.6013L6.20216 14.6029L6.2049 14.6065L6.21211 14.6159L6.23341 14.6432C6.25065 14.6649 6.27401 14.6938 6.30336 14.7288C6.36201 14.7987 6.445 14.8933 6.55145 15.0044C6.76353 15.2257 7.07343 15.5172 7.47433 15.8087C8.27227 16.3891 9.47447 17 11 17C12.5255 17 13.7277 16.3891 14.5257 15.8087C14.9266 15.5172 15.2365 15.2257 15.4486 15.0044C15.555 14.8933 15.638 14.7987 15.6966 14.7288C15.726 14.6938 15.7493 14.6649 15.7666 14.6432L15.7879 14.6159L15.7951 14.6065L15.7978 14.6029L15.799 14.6013C15.7992 14.601 15.8 14.6 15 14L15.8 14.6C16.1314 14.1582 16.0418 13.5314 15.6 13.2C15.1596 12.8697 14.5353 12.9576 14.2031 13.3958L14.1985 13.4018C14.1925 13.4093 14.1812 13.4234 14.1647 13.4431C14.1315 13.4826 14.0778 13.5442 14.0046 13.6206C13.8573 13.7743 13.6359 13.9828 13.3493 14.1913C12.7723 14.6109 11.9745 15 11 15C10.0255 15 9.22773 14.6109 8.65067 14.1913C8.36407 13.9828 8.14272 13.7743 7.99543 13.6206C7.92219 13.5442 7.86846 13.4826 7.83531 13.4431C7.81877 13.4234 7.80745 13.4093 7.8015 13.4018L7.79686 13.3958Z" fill="black"/>
<path fill-rule="evenodd" clip-rule="evenodd" d="M7 9C7 8.44772 7.44772 8 8 8H8.01C8.56229 8 9.01 8.44772 9.01 9C9.01 9.55229 8.56229 10 8.01 10H8C7.44772 10 7 9.55229 7 9Z" fill="black"/>
<path fill-rule="evenodd" clip-rule="evenodd" d="M13 9C13 8.44772 13.4477 8 14 8H14.01C14.5623 8 15.01 8.44772 15.01 9C15.01 9.55229 14.5623 10 14.01 10H14C13.4477 10 13 9.55229 13 9Z" fill="black"/>
</svg>
