<svg width="123" height="26" viewBox="0 0 123 26" fill="none" xmlns="http://www.w3.org/2000/svg">
<path d="M10.9658 15.01L16.4436 15.5461L14.2844 9.35437L10.9658 15.01ZM18.4298 21.2065L7.91999 20.178L6.10523 23.28L0.149683 22.6971L12.6182 1.41032L17.4591 1.88406L25.5643 25.1843L19.6087 24.6014L18.4298 21.2065Z" fill="#004CCF"/>
<path d="M33.2263 1.3536L36.041 23.5761L30.6441 24.2596L27.8294 2.03718L33.2263 1.3536Z" fill="#004CCF"/>
<path d="M59.6971 6.86572C59.8899 5.86003 60.2217 4.97874 60.7555 4.2339C61.2892 3.48906 61.9246 2.89403 62.693 2.45483C63.43 2.0096 64.294 1.75164 65.2657 1.61205C66.2313 1.50389 67.2671 1.53952 68.3671 1.75035C69.3099 1.93107 70.1972 2.23148 70.9976 2.64554C71.7665 3.05359 72.4545 3.54387 73.0242 4.14179C73.5878 4.77114 74.039 5.4767 74.3465 6.25245C74.6479 7.05962 74.831 7.97444 74.8388 8.95342L69.6629 9.94886C69.631 9.0956 69.4311 8.43823 69.032 7.97073C68.6269 7.53467 68.0659 7.23165 67.3116 7.08707C66.6202 6.95455 66.0618 6.97785 65.6993 7.16904C65.3054 7.3542 65.0941 7.60693 65.0278 7.95264C64.9676 8.26692 65.0137 8.53641 65.1661 8.76112C65.3125 9.01726 65.5278 9.25402 65.8434 9.47742C66.159 9.70082 66.5374 9.93627 66.9847 10.1523C67.4321 10.3684 67.9362 10.628 68.4658 10.925C69.0836 11.2715 69.6894 11.6808 70.3205 12.1276C70.9203 12.5684 71.4391 13.0914 71.877 13.6967C72.2835 14.2959 72.603 15.0088 72.7727 15.8233C72.9424 16.6378 72.9623 17.5539 72.7575 18.6225C72.5587 19.6596 72.1954 20.5349 71.6617 21.2797C71.1279 22.0245 70.4986 22.5881 69.7616 23.0334C68.9932 23.4726 68.1231 23.762 67.1575 23.8701C66.1858 24.0097 65.1561 23.9426 64.0875 23.7378C63.1132 23.5511 62.2199 23.2821 61.451 22.8741C60.6506 22.46 59.9626 21.9697 59.399 21.3404C58.8294 20.7425 58.3781 20.0369 58.0767 19.2297C57.7692 18.454 57.6176 17.5452 57.6158 16.5348L62.7917 15.5393C62.7862 16.418 62.986 17.0754 63.3912 17.5114C63.7903 17.9789 64.3887 18.2565 65.143 18.4011C65.8344 18.5336 66.3553 18.5357 66.7492 18.3506C67.1117 18.1594 67.3545 17.9127 67.4268 17.5356C67.481 17.2527 67.4349 16.9832 67.2885 16.7271C67.1361 16.5024 66.8894 16.2596 66.5738 16.0362C66.2582 15.8128 65.8797 15.5773 65.4324 15.3613C64.9851 15.1452 64.5184 14.8602 63.9888 14.5632C63.3336 14.2421 62.7278 13.8328 62.128 13.392C61.4969 12.9452 60.9841 12.3908 60.5776 11.7915C60.1397 11.1863 59.8142 10.5048 59.6445 9.69031C59.4748 8.8758 59.4923 7.93427 59.6971 6.86572Z" fill="#EF3F40"/>
<path d="M85.9175 1.5721C87.0586 1.41434 88.167 1.48723 89.2023 1.73175C90.2419 2.00798 91.1723 2.42853 91.9977 3.0251C92.7915 3.62606 93.4804 4.40303 93.9923 5.3014C94.5085 6.23147 94.875 7.24684 95.0328 8.38799C95.1906 9.52913 95.1177 10.6376 94.8688 11.6411C94.6242 12.6763 94.1676 13.5794 93.5666 14.3732C92.934 15.1713 92.157 15.8602 91.2269 16.3765C90.3013 16.9244 89.2498 17.2636 88.1087 17.4214L84.3365 17.9429L85.213 24.2826L79.8243 25.0276L76.7566 2.83861L85.9175 1.5721ZM89.644 9.13299C89.5432 8.40393 89.2381 7.83233 88.792 7.40944C88.3142 6.99094 87.6134 6.82938 86.6625 6.96085L82.8904 7.48235L83.5915 12.5541L87.3637 12.0326C88.3146 11.9011 88.9496 11.5872 89.2959 11.0548C89.6106 10.5267 89.7492 9.89375 89.644 9.13299Z" fill="#4BB795"/>
<path d="M104.706 23.5378L105.757 15.3812L98.3961 0.139826L104.871 0.973859L109.199 9.95244L115.661 2.36391L122.136 3.19795L111.153 16.0762L110.102 24.2328L104.706 23.5378Z" fill="#F5A43F"/>
</svg>
